<svg xmlns="http://www.w3.org/2000/svg" viewBox="0 0 112.06 145.19"><defs><style>.cls-1{fill:#5353a0;}</style></defs><title>logo</title><g id="Calque_2" data-name="Calque 2"><g id="Calque_1-2" data-name="Calque 1"><path class="cls-1" d="M76.12,58c-.48-3.75-3.41-6.57-3.63-10.5-.18-3.11,1.25-6.44,1.21-10.1,0-4.15-2.8-4.68-1.08-8.69l-6.24-1.39,0,.09C66,33.23,67.32,36.29,66,41c-4.57-1.66-1.73-10.77-3.58-14.68l-5.71-1.47c-.11,3.52.18,7.45-1.21,9.69-4.42,0-12,.68-14.54,4.84-.57,2,1.85,1.11,1.61,2.83C40,43.35,40.68,47.84,39,49.89c1.92,1.85,3.19,4.35,5.65,5.66,3.55-.5,5-3.12,8.89-3.23,2.77,2.3.78,7.48,3.23,10.5-1.75,1.89-2.4,4.87-5.25,5.65-6.76-3-10-11.68-18.18-12.12-5.67-.3-11.45,4.52-18.17,2C12.75,52.83,9,48.6,3.43,46.26,2.14,47.48-.79,48.9.2,51.1c.81,1.35,3.55.76,4.85,1.62C9.23,55.45,6.49,65,11.51,65.64c1.8.24,3.21-1.83,5.25-2,4.22-.4,9.52,3.52,14.94,1.62a34.77,34.77,0,0,1,5.65,5.25c1,2.19,4.6,3.66,4,6.05-7.57-.66-17.31-7.08-23.42-2.82.56,7.51,3,15.24,4.85,22.21.49,1.83,1.66,2.53,1.61,4,0,1-1.13,2.62-1.61,4-.69,2-.62,4.47-1.21,5.65-1,2-4.4,2.33-4,5.25.32,1.81,3.5,1.31,4.44.4.29,1.46,1.69,1.81,3.63,1.62,2.6-3.88.95-7.77,4-11.71,8.88-2.35-.17-6.75-1.21-12.12-.9-4.65.68-7.07-.4-10.1,11.27,2.59,20.18,7.55,30.69,10.91-1.9,7.47-1.57,14.54,1.21,21s8.85,10.65,9.69,15.75c1.26,7.62-5.44,13.76-13.32,10.5-3.61-1.49-6.82-11.35,0-12.52.77.91-.91,4,1.61,4,5.5-3.9-.45-7.8-4.85-6.06-2.78,1.1-4.68,5.63-4,9.69,1.75,10.91,19,11.81,23.83,2.42,3.85-16.28-12.46-22.62-9.69-39.57.41-2.5,2.09-3.59,2.42-6.87,3.22-3.8,7.15-9.15,8.89-14.54.24-.74-.26-2.15,0-3.23.33-1.37,1.48-2.1,1.61-3.23.17-1.36-.72-2.67-.8-4.44C75.17,64,76.45,60.5,76.12,58Z"/><path class="cls-1" d="M5.48,1.88,16.55,12.26,20.53,0l-15,1.88Z"/><rect class="cls-1" x="57.82" y="-27.08" width="12.96" height="96.24" transform="translate(24.4 75.68) rotate(-71.99)"/></g></g></svg>